<svg width="230" height="48" viewBox="0 0 230 48" fill="none" xmlns="http://www.w3.org/2000/svg">
<g clip-path="url(#clip0_610_82)">
<path d="M1 46.5228V1.47729H229V46.5228H1Z" fill="#D51B52" stroke="white" stroke-width="2"/>
<path fill-rule="evenodd" clip-rule="evenodd" d="M126.743 7.6748H124.485V39.4258H124.767H126.743H141.572V37.1766H126.743V7.6748Z" fill="white"/>
<path fill-rule="evenodd" clip-rule="evenodd" d="M179.416 16.353L172.434 36.3708L164.192 16.353H161.821L171.324 39.4259H171.362H173.695L181.768 16.353H179.416Z" fill="white"/>
<path fill-rule="evenodd" clip-rule="evenodd" d="M67.5961 8.42456L58.789 36.1645L49.3798 9.98025L49.3986 9.92402H49.361H47.2345H47.1968L47.2156 9.99899L39.0108 36.1458L29.0181 8.42456H26.854L38.0134 39.3509L37.9946 39.4071H38.0134H40.1399H40.1775L40.1587 39.3321L48.3636 13.1853L57.7728 39.3509L57.754 39.4071H57.7917H59.8993H59.9558L59.937 39.3321L69.7414 8.42456H67.5961Z" fill="white"/>
<path fill-rule="evenodd" clip-rule="evenodd" d="M151.527 16.0342C145.392 16.0342 140.386 21.4135 140.386 28.0486C140.386 34.6837 145.392 40.063 151.527 40.063C157.662 40.063 162.667 34.6837 162.667 28.0486C162.667 21.4135 157.662 16.0342 151.527 16.0342ZM151.527 37.7763C146.653 37.7763 142.682 33.4091 142.682 28.0486C142.682 22.688 146.653 18.3209 151.527 18.3209C156.401 18.3209 160.372 22.688 160.372 28.0486C160.372 33.4091 156.401 37.7763 151.527 37.7763Z" fill="white"/>
<path fill-rule="evenodd" clip-rule="evenodd" d="M203.146 28.0486C203.146 27.8799 203.146 27.7299 203.127 27.5613V26.8865H203.089C202.544 20.8137 197.783 16.0342 192.005 16.0342C185.87 16.0342 180.865 21.4135 180.865 28.0486C180.865 34.6837 185.87 40.063 192.005 40.063C196.315 40.063 200.154 37.4577 202.036 33.2779L202.261 32.7531L200.173 31.816L199.947 32.3408C198.441 35.6958 195.393 37.7763 192.005 37.7763C187.47 37.7763 183.706 33.9902 183.217 29.1357H203.127V28.6109H203.146V28.0486ZM192.005 18.3209C196.522 18.3209 200.248 22.0695 200.775 26.8865H183.217C183.744 22.0695 187.47 18.3209 192.005 18.3209Z" fill="white"/>
<path d="M75.1047 16.8403H72.79V39.4821H75.1047V16.8403Z" fill="white"/>
<path fill-rule="evenodd" clip-rule="evenodd" d="M89.8396 37.1203C89.8396 37.1203 89.6702 37.1203 89.4256 37.1203C88.7857 37.1203 87.2238 37.0453 86.2452 36.3893C85.229 35.6958 84.194 34.515 84.194 31.1225V19.3143H88.4094V16.9151H84.194V8.14331H81.8793V16.9339H78.4355V19.333H81.8793V31.1412C81.8793 35.4147 83.0649 37.0641 85.1161 38.4698C86.3205 39.2945 87.9201 39.4632 89.0492 39.4632C89.5949 39.4632 89.9525 39.4257 89.9525 39.4257L90.4606 39.3695V37.1016L89.8396 37.1391V37.1203Z" fill="white"/>
<path d="M75.1047 9.81152H72.79V15.6407H75.1047V9.81152Z" fill="white"/>
<path fill-rule="evenodd" clip-rule="evenodd" d="M103.013 16.4091C99.343 16.4091 97.0095 18.0585 95.6169 19.9515V8.14331H93.3022V39.5007H95.6169V25.9119C96.0121 23.7939 97.2918 19.7266 101.244 18.8644C101.94 18.7145 102.617 18.6395 103.257 18.6395C107.585 18.6395 109.844 22.0508 109.844 25.4246V39.5007H112.158V25.462C112.158 22.107 110.22 16.4091 102.994 16.4091H103.013Z" fill="white"/>
<path fill-rule="evenodd" clip-rule="evenodd" d="M153.446 24.3C152.035 24.5812 151.527 25.7433 151.527 25.7433C151.527 25.7433 151 24.5624 149.607 24.3C148.12 24.0001 146.766 25.031 146.502 26.3805C146.22 27.7488 147.104 29.2482 148.422 30.4666C149.664 31.6099 150.604 32.116 151.527 32.9781C152.449 32.116 153.39 31.5911 154.632 30.4666C155.949 29.2482 156.833 27.7488 156.551 26.3805C156.269 25.031 154.933 24.0001 153.427 24.3H153.446Z" fill="white"/>
</g>
<defs>
<clipPath id="clip0_610_82">
<rect width="230" height="47.0455" fill="white" transform="translate(0 0.477295)"/>
</clipPath>
</defs>
</svg>
